<?xml version="1.0" encoding="UTF-8" standalone="no"?><svg xmlns="http://www.w3.org/2000/svg" xmlns:xlink="http://www.w3.org/1999/xlink" contentStyleType="text/css" height="977px" preserveAspectRatio="none" style="width:717px;height:977px;background:#FFFFFF;" version="1.1" viewBox="0 0 717 977" width="717px" zoomAndPan="magnify"><defs/><g><!--MD5=[bdd093d563395dd36129062416f0eab9]
cluster moderniza-components--><g id="cluster_moderniza-components"><path d="M8.5,6 L174.5,6 A3.75,3.75 0 0 1 177,8.5 L184,29.6094 L700.5,29.6094 A2.5,2.5 0 0 1 703,32.1094 L703,967.5 A2.5,2.5 0 0 1 700.5,970 L8.5,970 A2.5,2.5 0 0 1 6,967.5 L6,8.5 A2.5,2.5 0 0 1 8.5,6 " fill="none" style="stroke:#000000;stroke-width:1.5;"/><line style="stroke:#000000;stroke-width:1.5;" x1="6" x2="184" y1="29.6094" y2="29.6094"/><text fill="#000000" font-family="sans-serif" font-size="14" font-weight="bold" lengthAdjust="spacing" textLength="165" x="10" y="22.5332">moderniza-components</text></g><!--MD5=[c2e097ae13de58564d8e4c4350e73d85]
cluster Dataview--><g id="cluster_Dataview"><rect fill="none" height="254" rx="2.5" ry="2.5" style="stroke:#181818;stroke-width:1.0;" width="262" x="192" y="50"/><rect fill="none" height="10" style="stroke:#181818;stroke-width:1.0;" width="15" x="434" y="55"/><rect fill="none" height="2" style="stroke:#181818;stroke-width:1.0;" width="4" x="432" y="57"/><rect fill="none" height="2" style="stroke:#181818;stroke-width:1.0;" width="4" x="432" y="61"/><text fill="#000000" font-family="sans-serif" font-size="14" font-weight="bold" lengthAdjust="spacing" textLength="64" x="291" y="77.5332">Dataview</text></g><!--MD5=[2b784147fbd295d737d5809ee223691a]
cluster paginator--><g id="cluster_paginator"><rect fill="none" height="116" rx="2.5" ry="2.5" style="stroke:#181818;stroke-width:1.0;" width="360" x="233" y="822"/><rect fill="none" height="10" style="stroke:#181818;stroke-width:1.0;" width="15" x="573" y="827"/><rect fill="none" height="2" style="stroke:#181818;stroke-width:1.0;" width="4" x="571" y="829"/><rect fill="none" height="2" style="stroke:#181818;stroke-width:1.0;" width="4" x="571" y="833"/><text fill="#000000" font-family="sans-serif" font-size="14" font-weight="bold" lengthAdjust="spacing" textLength="67" x="379.5" y="849.5332">paginator</text></g><!--MD5=[6eb34f7db6e07baf632e49b56d5156d3]
entity PrimeReactDatatable--><g id="elem_PrimeReactDatatable"><rect fill="#F1F1F1" height="47.6094" rx="2.5" ry="2.5" style="stroke:#181818;stroke-width:0.5;" width="174" x="364" y="534"/><rect fill="#F1F1F1" height="10" style="stroke:#181818;stroke-width:0.5;" width="15" x="518" y="539"/><rect fill="#F1F1F1" height="2" style="stroke:#181818;stroke-width:0.5;" width="4" x="516" y="541"/><rect fill="#F1F1F1" height="2" style="stroke:#181818;stroke-width:0.5;" width="4" x="516" y="545"/><text fill="#000000" font-family="sans-serif" font-size="14" lengthAdjust="spacing" textLength="134" x="379" y="568.5332">PrimeReactDatatable</text></g><!--MD5=[24d4214586e1ae56d3e154ce54abdc18]
entity PrimeReactDataview--><g id="elem_PrimeReactDataview"><rect fill="#F1F1F1" height="47.6094" rx="2.5" ry="2.5" style="stroke:#181818;stroke-width:0.5;" width="170" x="159" y="534"/><rect fill="#F1F1F1" height="10" style="stroke:#181818;stroke-width:0.5;" width="15" x="309" y="539"/><rect fill="#F1F1F1" height="2" style="stroke:#181818;stroke-width:0.5;" width="4" x="307" y="541"/><rect fill="#F1F1F1" height="2" style="stroke:#181818;stroke-width:0.5;" width="4" x="307" y="545"/><text fill="#000000" font-family="sans-serif" font-size="14" lengthAdjust="spacing" textLength="130" x="174" y="568.5332">PrimeReactDataview</text></g><!--MD5=[0ab40c9aa2794b04db9d5c7b1b9395b5]
entity type--><g id="elem_type"><polygon fill="#F1F1F1" points="285,362,271.5,348,244.5,348,231,362,244.5,376,271.5,376,285,362" style="stroke:#181818;stroke-width:0.5;"/><text fill="#000000" font-family="sans-serif" font-size="14" lengthAdjust="spacing" textLength="27" x="244.5" y="367.5332">type</text></g><!--MD5=[a4f2d62bb4fccc8ef4c9f67a1d937bcd]
entity responsive--><g id="elem_responsive"><polygon fill="#F1F1F1" points="458,362,423.5,348,354.5,348,320,362,354.5,376,423.5,376,458,362" style="stroke:#181818;stroke-width:0.5;"/><text fill="#000000" font-family="sans-serif" font-size="14" lengthAdjust="spacing" textLength="69" x="354.5" y="367.5332">responsive</text></g><!--MD5=[6a8dee2804e2518456c89a1d133c3ec2]
entity grid--><g id="elem_grid"><rect fill="#F1F1F1" height="37.6094" rx="2.5" ry="2.5" style="stroke:#181818;stroke-width:0.5;" width="44" x="298" y="436"/><text fill="#000000" font-family="sans-serif" font-size="14" lengthAdjust="spacing" textLength="24" x="308" y="460.5332">grid</text></g><!--MD5=[1a9b3ce6b05045b91178d8f4231a8390]
entity table--><g id="elem_table"><rect fill="#F1F1F1" height="37.6094" rx="2.5" ry="2.5" style="stroke:#181818;stroke-width:0.5;" width="51" x="377.5" y="436"/><text fill="#000000" font-family="sans-serif" font-size="14" lengthAdjust="spacing" textLength="31" x="387.5" y="460.5332">table</text></g><!--MD5=[e4d82bda88e552a72016f1ec85699593]
entity list--><g id="elem_list"><rect fill="#F1F1F1" height="37.6094" rx="2.5" ry="2.5" style="stroke:#181818;stroke-width:0.5;" width="37" x="225.5" y="436"/><text fill="#000000" font-family="sans-serif" font-size="14" lengthAdjust="spacing" textLength="17" x="235.5" y="460.5332">list</text></g><!--MD5=[a5a8cf87f0abf75390394ee2a59c7549]
entity addButton--><g id="elem_addButton"><rect fill="#F1F1F1" height="47.6094" rx="2.5" ry="2.5" style="stroke:#181818;stroke-width:0.5;" width="105" x="250.5" y="642"/><rect fill="#F1F1F1" height="10" style="stroke:#181818;stroke-width:0.5;" width="15" x="335.5" y="647"/><rect fill="#F1F1F1" height="2" style="stroke:#181818;stroke-width:0.5;" width="4" x="333.5" y="649"/><rect fill="#F1F1F1" height="2" style="stroke:#181818;stroke-width:0.5;" width="4" x="333.5" y="653"/><text fill="#000000" font-family="sans-serif" font-size="14" lengthAdjust="spacing" textLength="65" x="265.5" y="676.5332">addButton</text></g><!--MD5=[f50a9991c9bc1b15b162b4ad45bf0101]
entity sortButton--><g id="elem_sortButton"><rect fill="#F1F1F1" height="47.6094" rx="2.5" ry="2.5" style="stroke:#181818;stroke-width:0.5;" width="105" x="22.5" y="750"/><rect fill="#F1F1F1" height="10" style="stroke:#181818;stroke-width:0.5;" width="15" x="107.5" y="755"/><rect fill="#F1F1F1" height="2" style="stroke:#181818;stroke-width:0.5;" width="4" x="105.5" y="757"/><rect fill="#F1F1F1" height="2" style="stroke:#181818;stroke-width:0.5;" width="4" x="105.5" y="761"/><text fill="#000000" font-family="sans-serif" font-size="14" lengthAdjust="spacing" textLength="65" x="37.5" y="784.5332">sortButton</text></g><!--MD5=[91ec9bd0bcc96c818fb5402d62f63b9c]
entity exportButton--><g id="elem_exportButton"><rect fill="#F1F1F1" height="47.6094" rx="2.5" ry="2.5" style="stroke:#181818;stroke-width:0.5;" width="120" x="391" y="642"/><rect fill="#F1F1F1" height="10" style="stroke:#181818;stroke-width:0.5;" width="15" x="491" y="647"/><rect fill="#F1F1F1" height="2" style="stroke:#181818;stroke-width:0.5;" width="4" x="489" y="649"/><rect fill="#F1F1F1" height="2" style="stroke:#181818;stroke-width:0.5;" width="4" x="489" y="653"/><text fill="#000000" font-family="sans-serif" font-size="14" lengthAdjust="spacing" textLength="80" x="406" y="676.5332">exportButton</text></g><!--MD5=[6017ceff63d160e2c0a48b8255555db3]
entity searchbar--><g id="elem_searchbar"><rect fill="#F1F1F1" height="47.6094" rx="2.5" ry="2.5" style="stroke:#181818;stroke-width:0.5;" width="104" x="546" y="642"/><rect fill="#F1F1F1" height="10" style="stroke:#181818;stroke-width:0.5;" width="15" x="630" y="647"/><rect fill="#F1F1F1" height="2" style="stroke:#181818;stroke-width:0.5;" width="4" x="628" y="649"/><rect fill="#F1F1F1" height="2" style="stroke:#181818;stroke-width:0.5;" width="4" x="628" y="653"/><text fill="#000000" font-family="sans-serif" font-size="14" lengthAdjust="spacing" textLength="64" x="561" y="676.5332">searchbar</text></g><!--MD5=[59990eb60020c1c1de5aa701ebbf12d2]
entity layoutButton--><g id="elem_layoutButton"><rect fill="#F1F1F1" height="47.6094" rx="2.5" ry="2.5" style="stroke:#181818;stroke-width:0.5;" width="119" x="96.5" y="642"/><rect fill="#F1F1F1" height="10" style="stroke:#181818;stroke-width:0.5;" width="15" x="195.5" y="647"/><rect fill="#F1F1F1" height="2" style="stroke:#181818;stroke-width:0.5;" width="4" x="193.5" y="649"/><rect fill="#F1F1F1" height="2" style="stroke:#181818;stroke-width:0.5;" width="4" x="193.5" y="653"/><text fill="#000000" font-family="sans-serif" font-size="14" lengthAdjust="spacing" textLength="79" x="111.5" y="676.5332">layoutButton</text></g><rect fill="#F1F1F1" height="194.4844" style="stroke:#181818;stroke-width:0.5;" width="214" x="216" y="90"/><text fill="#000000" font-family="sans-serif" font-size="14" lengthAdjust="spacing" textLength="106" x="270" y="106.5332">DataviewOptions</text><line style="stroke:#181818;stroke-width:1.0;" x1="295" x2="295" y1="111.6094" y2="284.4844"/><line style="stroke:#181818;stroke-width:1.0;" x1="216" x2="430" y1="111.6094" y2="111.6094"/><text fill="#000000" font-family="sans-serif" font-size="14" lengthAdjust="spacing" textLength="27" x="221" y="128.1426">type</text><text fill="#000000" font-family="sans-serif" font-size="14" lengthAdjust="spacing" textLength="96" x="300" y="128.1426">'grid'|'list'|'table'</text><line style="stroke:#181818;stroke-width:1.0;" x1="216" x2="430" y1="133.2188" y2="133.2188"/><text fill="#000000" font-family="sans-serif" font-size="14" lengthAdjust="spacing" textLength="69" x="221" y="149.752">responsive</text><line style="stroke:#181818;stroke-width:1.0;" x1="324" x2="324" y1="133.2188" y2="262.875"/><line style="stroke:#181818;stroke-width:1.0;" x1="295" x2="430" y1="133.2188" y2="133.2188"/><text fill="#000000" font-family="sans-serif" font-size="14" lengthAdjust="spacing" textLength="13" x="300" y="149.752">xs</text><text fill="#000000" font-family="sans-serif" font-size="14" lengthAdjust="spacing" textLength="96" x="329" y="149.752">'grid'|'list'|'table'</text><line style="stroke:#181818;stroke-width:1.0;" x1="295" x2="430" y1="154.8281" y2="154.8281"/><text fill="#000000" font-family="sans-serif" font-size="14" lengthAdjust="spacing" textLength="18" x="300" y="171.3613">sm</text><text fill="#000000" font-family="sans-serif" font-size="14" lengthAdjust="spacing" textLength="96" x="329" y="171.3613">'grid'|'list'|'table'</text><line style="stroke:#181818;stroke-width:1.0;" x1="295" x2="430" y1="176.4375" y2="176.4375"/><text fill="#000000" font-family="sans-serif" font-size="14" lengthAdjust="spacing" textLength="19" x="300" y="192.9707">md</text><text fill="#000000" font-family="sans-serif" font-size="14" lengthAdjust="spacing" textLength="96" x="329" y="192.9707">'grid'|'list'|'table'</text><line style="stroke:#181818;stroke-width:1.0;" x1="295" x2="430" y1="198.0469" y2="198.0469"/><text fill="#000000" font-family="sans-serif" font-size="14" lengthAdjust="spacing" textLength="11" x="300" y="214.5801">lg</text><text fill="#000000" font-family="sans-serif" font-size="14" lengthAdjust="spacing" textLength="96" x="329" y="214.5801">'grid'|'list'|'table'</text><line style="stroke:#181818;stroke-width:1.0;" x1="295" x2="430" y1="219.6563" y2="219.6563"/><text fill="#000000" font-family="sans-serif" font-size="14" lengthAdjust="spacing" textLength="9" x="300" y="236.1895">xl</text><text fill="#000000" font-family="sans-serif" font-size="14" lengthAdjust="spacing" textLength="96" x="329" y="236.1895">'grid'|'list'|'table'</text><line style="stroke:#181818;stroke-width:1.0;" x1="295" x2="430" y1="241.2656" y2="241.2656"/><text fill="#000000" font-family="sans-serif" font-size="14" lengthAdjust="spacing" textLength="15" x="300" y="257.7988">xxl</text><text fill="#000000" font-family="sans-serif" font-size="14" lengthAdjust="spacing" textLength="96" x="329" y="257.7988">'grid'|'list'|'table'</text><line style="stroke:#181818;stroke-width:1.0;" x1="216" x2="430" y1="262.875" y2="262.875"/><text fill="#000000" font-family="sans-serif" font-size="14" lengthAdjust="spacing" textLength="66" x="221" y="279.4082">options[...]</text><text fill="#000000" font-family="sans-serif" font-size="14" lengthAdjust="spacing" textLength="20" x="300" y="279.4082">[...]</text><!--MD5=[f81ea6cbbf5d0a28ae824da23b570a2e]
entity paginatorLeft--><g id="elem_paginatorLeft"><rect fill="#F1F1F1" height="47.6094" rx="2.5" ry="2.5" style="stroke:#181818;stroke-width:0.5;" width="124" x="445" y="866"/><rect fill="#F1F1F1" height="10" style="stroke:#181818;stroke-width:0.5;" width="15" x="549" y="871"/><rect fill="#F1F1F1" height="2" style="stroke:#181818;stroke-width:0.5;" width="4" x="547" y="873"/><rect fill="#F1F1F1" height="2" style="stroke:#181818;stroke-width:0.5;" width="4" x="547" y="877"/><text fill="#000000" font-family="sans-serif" font-size="14" lengthAdjust="spacing" textLength="84" x="460" y="900.5332">paginatorLeft</text></g><!--MD5=[5a3e9438531110c06b4f52d7aff6c6f7]
entity paginatorRight--><g id="elem_paginatorRight"><rect fill="#F1F1F1" height="47.6094" rx="2.5" ry="2.5" style="stroke:#181818;stroke-width:0.5;" width="133" x="276.5" y="866"/><rect fill="#F1F1F1" height="10" style="stroke:#181818;stroke-width:0.5;" width="15" x="389.5" y="871"/><rect fill="#F1F1F1" height="2" style="stroke:#181818;stroke-width:0.5;" width="4" x="387.5" y="873"/><rect fill="#F1F1F1" height="2" style="stroke:#181818;stroke-width:0.5;" width="4" x="387.5" y="877"/><text fill="#000000" font-family="sans-serif" font-size="14" lengthAdjust="spacing" textLength="93" x="291.5" y="900.5332">paginatorRight</text></g><!--MD5=[abafa26a6d5a065e26097e6ab93d87b7]
link DataviewOptions to responsive--><g id="link_DataviewOptions_responsive"><path codeLine="41" d="M361.2,288.13 C369.28,309.3 376.92,329.34 382.15,343.03 " fill="none" id="DataviewOptions-to-responsive" style="stroke:#181818;stroke-width:1.0;"/><polygon fill="#181818" points="383.96,347.78,384.4827,337.945,382.1747,343.1096,377.0101,340.8015,383.96,347.78" style="stroke:#181818;stroke-width:1.0;"/></g><!--MD5=[e1646bb1e07696e7f3dfff1622e2dc08]
link DataviewOptions to type--><g id="link_DataviewOptions_type"><path codeLine="42" d="M285.38,288.13 C277.43,309.3 269.89,329.34 264.75,343.03 " fill="none" id="DataviewOptions-to-type" style="stroke:#181818;stroke-width:1.0;"/><polygon fill="#181818" points="262.97,347.78,269.8825,340.7645,264.7303,343.1001,262.3947,337.948,262.97,347.78" style="stroke:#181818;stroke-width:1.0;"/></g><!--MD5=[8eb6c70f5a98dfada586363b7a9ea878]
link type to grid--><g id="link_type_grid"><path codeLine="44" d="M266.88,376.04 C277.6,391.76 295.67,418.29 307.71,435.97 " fill="none" id="type-grid" style="stroke:#181818;stroke-width:1.0;stroke-dasharray:7.0,7.0;"/></g><!--MD5=[fb34414f22ce93b38fcbf2ccbd78c078]
link type to table--><g id="link_type_table"><path codeLine="45" d="M274.35,373.26 C299.46,389.02 347.72,419.31 377.46,437.97 " fill="none" id="type-table" style="stroke:#181818;stroke-width:1.0;stroke-dasharray:7.0,7.0;"/></g><!--MD5=[a54af8da672759c89501798b0dbb4988]
link type to list--><g id="link_type_list"><path codeLine="46" d="M255.99,376.04 C253.57,391.76 249.49,418.29 246.77,435.97 " fill="none" id="type-list" style="stroke:#181818;stroke-width:1.0;stroke-dasharray:7.0,7.0;"/></g><!--MD5=[66aa36eac677a5d93495d85a668b8b01]
link responsive to grid--><g id="link_responsive_grid"><path codeLine="48" d="M379.11,376.04 C367.19,391.76 347.08,418.29 333.67,435.97 " fill="none" id="responsive-grid" style="stroke:#181818;stroke-width:1.0;stroke-dasharray:7.0,7.0;"/></g><!--MD5=[8150598316670bb36a4484793f891ebb]
link responsive to table--><g id="link_responsive_table"><path codeLine="49" d="M391.01,376.04 C393.43,391.76 397.51,418.29 400.23,435.97 " fill="none" id="responsive-table" style="stroke:#181818;stroke-width:1.0;stroke-dasharray:7.0,7.0;"/></g><!--MD5=[ffe9a39a7b7a06afaa6f95bb66c2ef91]
link responsive to list--><g id="link_responsive_list"><path codeLine="50" d="M368.23,376.04 C340.03,393.73 290.07,425.09 262.89,442.14 " fill="none" id="responsive-list" style="stroke:#181818;stroke-width:1.0;stroke-dasharray:7.0,7.0;"/></g><!--MD5=[ed2d4fc9aefff316c9ac6299fbc935fd]
link list to PrimeReactDataview--><g id="link_list_PrimeReactDataview"><path codeLine="52" d="M244,474.06 C244,489.17 244,511.02 244,528.5 " fill="none" id="list-to-PrimeReactDataview" style="stroke:#181818;stroke-width:1.0;"/><polygon fill="#181818" points="244,533.77,248,524.77,244,528.77,240,524.77,244,533.77" style="stroke:#181818;stroke-width:1.0;"/></g><!--MD5=[c6a37178f83644145a71277ac0fbedd4]
link grid to PrimeReactDataview--><g id="link_grid_PrimeReactDataview"><path codeLine="53" d="M306.41,474.06 C294.84,489.44 278.03,511.77 264.77,529.4 " fill="none" id="grid-to-PrimeReactDataview" style="stroke:#181818;stroke-width:1.0;"/><polygon fill="#181818" points="261.48,533.77,270.08,528.97,264.48,529.77,263.68,524.17,261.48,533.77" style="stroke:#181818;stroke-width:1.0;"/></g><!--MD5=[66e8a762d7a8ae3ab2f0964818f21fb4]
link table to PrimeReactDatatable--><g id="link_table_PrimeReactDatatable"><path codeLine="54" d="M411.58,474.06 C418.83,489.3 429.33,511.4 437.67,528.95 " fill="none" id="table-to-PrimeReactDatatable" style="stroke:#181818;stroke-width:1.0;"/><polygon fill="#181818" points="439.96,533.77,439.7141,523.9242,437.8159,529.2531,432.487,527.3548,439.96,533.77" style="stroke:#181818;stroke-width:1.0;"/></g><!--MD5=[ddec3fd91ee0bc436b8bcff1ff519519]
link PrimeReactDatatable to searchbar--><g id="link_PrimeReactDatatable_searchbar"><path codeLine="56" d="M482.9,582 C506.13,598.75 537.62,621.46 561.79,638.89 " fill="none" id="PrimeReactDatatable-to-searchbar" style="stroke:#181818;stroke-width:1.0;"/><polygon fill="#181818" points="565.91,641.86,560.9537,633.3491,561.8559,638.9336,556.2714,639.8358,565.91,641.86" style="stroke:#181818;stroke-width:1.0;"/></g><!--MD5=[ab4d3c49b18b92a629449b8e8f37d419]
link PrimeReactDatatable to addButton--><g id="link_PrimeReactDatatable_addButton"><path codeLine="57" d="M418.89,582 C395.5,598.75 363.79,621.46 339.45,638.89 " fill="none" id="PrimeReactDatatable-to-addButton" style="stroke:#181818;stroke-width:1.0;"/><polygon fill="#181818" points="335.31,641.86,344.9533,639.8581,339.3709,638.943,340.2861,633.3607,335.31,641.86" style="stroke:#181818;stroke-width:1.0;"/></g><!--MD5=[84f580f04e577ba70798cff0a3546f04]
link PrimeReactDatatable to layoutButton--><g id="link_PrimeReactDatatable_layoutButton"><path codeLine="58" d="M386.99,582 C337.74,599.7 269.98,624.05 220.59,641.79 " fill="none" id="PrimeReactDatatable-to-layoutButton" style="stroke:#181818;stroke-width:1.0;"/><polygon fill="#181818" points="215.86,643.49,225.6813,644.2262,220.5681,641.8065,222.9877,636.6933,215.86,643.49" style="stroke:#181818;stroke-width:1.0;"/></g><!--MD5=[daa678949775a51a7aa0f1190ef6834a]
link PrimeReactDatatable to exportButton--><g id="link_PrimeReactDatatable_exportButton"><path codeLine="59" d="M451,582 C451,598 451,619.45 451,636.53 " fill="none" id="PrimeReactDatatable-to-exportButton" style="stroke:#181818;stroke-width:1.0;"/><polygon fill="#181818" points="451,641.68,455,632.68,451,636.68,447,632.68,451,641.68" style="stroke:#181818;stroke-width:1.0;"/></g><!--MD5=[6765ed87a8fad76cec00808c421ac93a]
link PrimeReactDatatable to paginator--><g id="link_PrimeReactDatatable_paginator"><path codeLine="60" d="M538.29,576.93 C615.66,596.92 710.3,633.99 668,690 C554.38,840.43 389.8,669.28 260,806 C256.845,809.3238 254.1755,813.0597 251.9201,817.0592 C251.3563,818.0591 250.8183,819.0755 250.3051,820.106 C250.0485,820.6213 249.7981,821.1401 249.5538,821.6621 " fill="none" id="PrimeReactDatatable-to-paginator" style="stroke:#181818;stroke-width:1.0;"/><polygon fill="#181818" points="249.5538,821.6621,256.9918,815.2065,251.6734,817.1336,249.7462,811.8151,249.5538,821.6621" style="stroke:#181818;stroke-width:1.0;"/></g><!--MD5=[f47021bc21dada211cb16ab1a8369d51]
link PrimeReactDataview to searchbar--><g id="link_PrimeReactDataview_searchbar"><path codeLine="62" d="M326.25,582.05 C383.32,598.26 460.99,620.77 529,642 C532.81,643.19 536.74,644.44 540.69,645.71 " fill="none" id="PrimeReactDataview-to-searchbar" style="stroke:#181818;stroke-width:1.0;"/><polygon fill="#181818" points="545.7,647.33,538.373,640.7486,540.9439,645.7875,535.905,648.3583,545.7,647.33" style="stroke:#181818;stroke-width:1.0;"/></g><!--MD5=[d4a2d9f881d914227fdf7e9212ea5ce1]
link PrimeReactDataview to sortButton--><g id="link_PrimeReactDataview_sortButton"><path codeLine="63" d="M158.85,573.44 C118.98,584.92 75.07,605.44 51,642 C30.56,673.03 45.24,716.73 59,744.96 " fill="none" id="PrimeReactDataview-to-sortButton" style="stroke:#181818;stroke-width:1.0;stroke-dasharray:7.0,7.0;"/><polygon fill="#181818" points="61.38,749.7,60.9202,739.8619,59.1382,745.2307,53.7694,743.4487,61.38,749.7" style="stroke:#181818;stroke-width:1.0;"/></g><!--MD5=[3d6238cddc7b925d68a478b2f8605535]
link PrimeReactDataview to addButton--><g id="link_PrimeReactDataview_addButton"><path codeLine="64" d="M256.8,582 C265.79,598.14 277.85,619.82 287.4,636.97 " fill="none" id="PrimeReactDataview-to-addButton" style="stroke:#181818;stroke-width:1.0;"/><polygon fill="#181818" points="290.02,641.68,289.1458,631.87,287.5918,637.3092,282.1526,635.7552,290.02,641.68" style="stroke:#181818;stroke-width:1.0;"/></g><!--MD5=[1cac7443b284500f47ea0c945dec8e82]
link PrimeReactDataview to layoutButton--><g id="link_PrimeReactDataview_layoutButton"><path codeLine="65" d="M224.91,582 C211.39,598.28 193.2,620.19 178.91,637.41 " fill="none" id="PrimeReactDataview-to-layoutButton" style="stroke:#181818;stroke-width:1.0;"/><polygon fill="#181818" points="175.36,641.68,184.193,637.3235,178.5595,637.8377,178.0453,632.2043,175.36,641.68" style="stroke:#181818;stroke-width:1.0;"/></g><!--MD5=[d1c52a3e8fa3c1cd4f44b734fecf2d1e]
link PrimeReactDataview to exportButton--><g id="link_PrimeReactDataview_exportButton"><path codeLine="66" d="M288.92,582 C322.03,598.96 367.08,622.02 401.28,639.54 " fill="none" id="PrimeReactDataview-to-exportButton" style="stroke:#181818;stroke-width:1.0;"/><polygon fill="#181818" points="405.81,641.86,399.6174,634.2016,401.3581,639.5839,395.9757,641.3246,405.81,641.86" style="stroke:#181818;stroke-width:1.0;"/></g><!--MD5=[df1857f19094c8e56a8f9eddf4ba366a]
link PrimeReactDataview to paginator--><g id="link_PrimeReactDataview_paginator"><path codeLine="67" d="M158.81,581.29 C128.19,593.86 96.83,613.06 79,642 C67.81,660.16 70.37,670.49 79,690 C95.04,726.25 118.9,720.16 145,750 C169.33,777.815 192.965,811.9225 210.6963,839.39 C219.5619,853.1238 226.9516,865.1975 232.2142,873.9947 C232.3787,874.2696 232.5411,874.5413 232.7013,874.8098 C232.7815,874.944 232.8611,875.0774 232.9402,875.21 " fill="none" id="PrimeReactDataview-to-paginator" style="stroke:#181818;stroke-width:1.0;stroke-dasharray:7.0,7.0;"/><polygon fill="#181818" points="232.9402,875.21,231.7652,865.4315,230.3789,870.9159,224.8945,869.5296,232.9402,875.21" style="stroke:#181818;stroke-width:1.0;"/></g><!--MD5=[680f2d215b8ec465aff0ba80ea0ca2ad]
@startuml dataviewDiagram
' Permite mixar tipos diferentes
allowmixing

package moderniza-components{
    
    component Dataview{
        json DataviewOptions {
            "type":"'grid'|'list'|'table'",
            "responsive":{
                "xs":"'grid'|'list'|'table'",
                "sm":"'grid'|'list'|'table'",
                "md":"'grid'|'list'|'table'",
                "lg":"'grid'|'list'|'table'",
                "xl":"'grid'|'list'|'table'",
                "xxl":"'grid'|'list'|'table'"
            },
            "options[...]":"[...]"
        }
    }

    component PrimeReactDatatable
    component PrimeReactDataview

    hexagon type
    hexagon responsive

    rectangle grid
    rectangle table
    rectangle list

    component addButton
    component sortButton
    component exportButton
    component searchbar
    component layoutButton
    component paginator{
        component paginatorLeft
        component paginatorRight
    }

    DataviewOptions -down-> responsive
    DataviewOptions -down-> type

    type .. grid
    type .. table
    type .. list

    responsive .. grid
    responsive .. table
    responsive .. list

    list - -> PrimeReactDataview
    grid - -> PrimeReactDataview
    table - -> PrimeReactDatatable

    PrimeReactDatatable - -> searchbar
    PrimeReactDatatable - -> addButton
    PrimeReactDatatable - -> layoutButton
    PrimeReactDatatable - -> exportButton
    PrimeReactDatatable - -> paginator

    PrimeReactDataview - -> searchbar
    PrimeReactDataview .- -> sortButton
    PrimeReactDataview - -> addButton
    PrimeReactDataview - -> layoutButton
    PrimeReactDataview - -> exportButton
    PrimeReactDataview ..- -> paginator

}

@enduml

@startuml dataviewDiagram
allowmixing

package moderniza-components{
    
    component Dataview{
        json DataviewOptions {
            "type":"'grid'|'list'|'table'",
            "responsive":{
                "xs":"'grid'|'list'|'table'",
                "sm":"'grid'|'list'|'table'",
                "md":"'grid'|'list'|'table'",
                "lg":"'grid'|'list'|'table'",
                "xl":"'grid'|'list'|'table'",
                "xxl":"'grid'|'list'|'table'"
            },
            "options[...]":"[...]"
        }
    }

    component PrimeReactDatatable
    component PrimeReactDataview

    hexagon type
    hexagon responsive

    rectangle grid
    rectangle table
    rectangle list

    component addButton
    component sortButton
    component exportButton
    component searchbar
    component layoutButton
    component paginator{
        component paginatorLeft
        component paginatorRight
    }

    DataviewOptions -down-> responsive
    DataviewOptions -down-> type

    type .. grid
    type .. table
    type .. list

    responsive .. grid
    responsive .. table
    responsive .. list

    list - -> PrimeReactDataview
    grid - -> PrimeReactDataview
    table - -> PrimeReactDatatable

    PrimeReactDatatable - -> searchbar
    PrimeReactDatatable - -> addButton
    PrimeReactDatatable - -> layoutButton
    PrimeReactDatatable - -> exportButton
    PrimeReactDatatable - -> paginator

    PrimeReactDataview - -> searchbar
    PrimeReactDataview .- -> sortButton
    PrimeReactDataview - -> addButton
    PrimeReactDataview - -> layoutButton
    PrimeReactDataview - -> exportButton
    PrimeReactDataview ..- -> paginator

}

@enduml

PlantUML version 1.2022.7(Mon Aug 22 14:01:30 BRT 2022)
(GPL source distribution)
Java Runtime: Java(TM) SE Runtime Environment
JVM: Java HotSpot(TM) 64-Bit Server VM
Default Encoding: UTF-8
Language: pt
Country: BR
--></g></svg>